<svg width="54" height="10" viewBox="0 0 54 10" fill="none" xmlns="http://www.w3.org/2000/svg">
<path d="M6.984 6.204C7 6.46 7.008 6.704 7.008 6.936C7.008 7.16 7 7.4 6.984 7.656C6.984 7.752 6.984 7.86 6.984 7.98C6.984 8.1 6.976 8.216 6.96 8.328C6.944 8.44 6.916 8.544 6.876 8.64C6.836 8.736 6.776 8.812 6.696 8.868C6.6 8.932 6.492 8.976 6.372 9C6.252 9.016 6.14 9.008 6.036 8.976C5.932 8.944 5.84 8.884 5.76 8.796C5.688 8.708 5.648 8.584 5.64 8.424C5.616 8.056 5.604 7.688 5.604 7.32C5.604 7.136 5.6 6.96 5.592 6.792C5.592 6.624 5.596 6.388 5.604 6.084C5.604 5.932 5.592 5.76 5.568 5.568C5.544 5.368 5.484 5.228 5.388 5.148C5.316 5.084 5.236 5.048 5.148 5.04C5.06 5.024 4.972 5.032 4.884 5.064C4.804 5.096 4.732 5.156 4.668 5.244C4.604 5.324 4.56 5.428 4.536 5.556C4.536 5.66 4.532 5.768 4.524 5.88C4.524 5.984 4.528 6.084 4.536 6.18C4.544 6.436 4.548 6.68 4.548 6.912C4.548 7.136 4.544 7.376 4.536 7.632C4.528 7.736 4.524 7.848 4.524 7.968C4.532 8.088 4.532 8.208 4.524 8.328C4.516 8.44 4.492 8.544 4.452 8.64C4.42 8.736 4.36 8.812 4.272 8.868C4.176 8.932 4.072 8.972 3.96 8.988C3.856 8.996 3.756 8.98 3.66 8.94C3.572 8.892 3.492 8.82 3.42 8.724C3.356 8.628 3.32 8.5 3.312 8.34C3.296 8.156 3.284 7.988 3.276 7.836C3.276 7.676 3.276 7.508 3.276 7.332C3.276 7.148 3.28 6.96 3.288 6.768C3.296 6.568 3.292 6.376 3.276 6.192C3.276 6.136 3.272 6.072 3.264 6C3.264 5.92 3.26 5.84 3.252 5.76C3.252 5.68 3.244 5.604 3.228 5.532C3.22 5.452 3.204 5.388 3.18 5.34C3.116 5.228 3 5.156 2.832 5.124C2.672 5.092 2.536 5.104 2.424 5.16C2.312 5.216 2.228 5.288 2.172 5.376C2.116 5.464 2.076 5.56 2.052 5.664C2.028 5.768 2.016 5.88 2.016 6C2.016 6.112 2.016 6.22 2.016 6.324C2.016 6.844 2.016 7.296 2.016 7.68C2.024 8.056 1.984 8.36 1.896 8.592C1.856 8.712 1.772 8.804 1.644 8.868C1.524 8.932 1.392 8.964 1.248 8.964C1.112 8.964 0.984 8.932 0.864 8.868C0.744 8.804 0.664 8.704 0.624 8.568C0.6 8.48 0.576 8.356 0.552 8.196C0.536 8.028 0.524 7.844 0.516 7.644C0.508 7.444 0.504 7.244 0.504 7.044C0.504 6.836 0.504 6.648 0.504 6.48V4.752C0.496 4.568 0.492 4.368 0.492 4.152C0.492 3.936 0.524 3.74 0.588 3.564C0.644 3.412 0.732 3.316 0.852 3.276C0.972 3.228 1.096 3.208 1.224 3.216C1.368 3.216 1.48 3.256 1.56 3.336C1.648 3.408 1.712 3.5 1.752 3.612C1.792 3.716 1.816 3.836 1.824 3.972C1.832 4.1 1.84 4.224 1.848 4.344C1.936 4.144 2.04 3.98 2.16 3.852C2.288 3.716 2.468 3.628 2.7 3.588C3.292 3.476 3.764 3.628 4.116 4.044C4.276 3.884 4.48 3.752 4.728 3.648C4.92 3.576 5.116 3.544 5.316 3.552C5.516 3.552 5.704 3.588 5.88 3.66C6.064 3.732 6.228 3.836 6.372 3.972C6.524 4.108 6.644 4.272 6.732 4.464C6.852 4.72 6.92 5.004 6.936 5.316C6.952 5.628 6.968 5.924 6.984 6.204ZM9.37228 3.948C9.61228 3.828 9.86428 3.744 10.1283 3.696C10.3923 3.64 10.6523 3.628 10.9083 3.66C11.1723 3.684 11.4243 3.752 11.6643 3.864C11.9043 3.968 12.1283 4.12 12.3363 4.32C12.5443 4.528 12.7043 4.756 12.8163 5.004C12.9283 5.252 13.0083 5.528 13.0563 5.832C13.0883 6.04 13.1403 6.232 13.2123 6.408C13.2843 6.584 13.3603 6.76 13.4403 6.936C13.5283 7.112 13.6083 7.288 13.6803 7.464C13.7603 7.64 13.8243 7.824 13.8723 8.016C13.9123 8.2 13.8963 8.38 13.8243 8.556C13.7603 8.724 13.6243 8.828 13.4163 8.868C13.2963 8.892 13.1803 8.884 13.0683 8.844C12.9643 8.796 12.8683 8.732 12.7803 8.652C12.6923 8.564 12.6123 8.472 12.5403 8.376C12.4763 8.272 12.4163 8.176 12.3603 8.088C12.1763 8.328 11.9763 8.516 11.7603 8.652C11.5443 8.78 11.2843 8.864 10.9803 8.904C10.7243 8.936 10.4803 8.944 10.2483 8.928C10.0163 8.912 9.76828 8.868 9.50428 8.796C9.16028 8.708 8.87628 8.556 8.65228 8.34C8.43628 8.116 8.26828 7.86 8.14828 7.572C8.03628 7.276 7.97628 6.96 7.96828 6.624C7.96028 6.288 8.00028 5.956 8.08828 5.628C8.20028 5.196 8.36828 4.844 8.59228 4.572C8.81628 4.3 9.07628 4.092 9.37228 3.948ZM9.67228 5.352C9.56028 5.464 9.47228 5.596 9.40828 5.748C9.34428 5.9 9.30428 6.06 9.28828 6.228C9.28028 6.396 9.29628 6.564 9.33628 6.732C9.37628 6.9 9.44028 7.048 9.52828 7.176C9.60828 7.288 9.74428 7.384 9.93628 7.464C10.1283 7.536 10.3283 7.58 10.5363 7.596C10.7763 7.612 10.9843 7.548 11.1603 7.404C11.3443 7.26 11.4803 7.08 11.5683 6.864C11.6643 6.64 11.7083 6.404 11.7003 6.156C11.6923 5.9 11.6243 5.668 11.4963 5.46C11.4003 5.308 11.2723 5.196 11.1123 5.124C10.9603 5.052 10.7963 5.016 10.6203 5.016C10.4443 5.008 10.2683 5.036 10.0923 5.1C9.92428 5.156 9.78428 5.24 9.67228 5.352ZM14.8826 4.752C14.8826 4.656 14.8826 4.548 14.8826 4.428C14.8826 4.3 14.8866 4.172 14.8946 4.044C14.9026 3.908 14.9146 3.78 14.9306 3.66C14.9546 3.532 14.9866 3.42 15.0266 3.324C15.0906 3.18 15.1906 3.084 15.3266 3.036C15.4626 2.98 15.6106 2.956 15.7706 2.964C15.9386 2.964 16.0706 2.992 16.1666 3.048C16.2626 3.104 16.3346 3.18 16.3826 3.276C16.4306 3.364 16.4586 3.468 16.4666 3.588C16.4826 3.7 16.4906 3.82 16.4906 3.948C16.5626 3.82 16.6586 3.716 16.7786 3.636C16.9066 3.556 17.0346 3.492 17.1626 3.444C17.2906 3.396 17.4066 3.364 17.5106 3.348C17.6146 3.324 17.6746 3.312 17.6906 3.312C17.8906 3.296 18.0706 3.292 18.2306 3.3C18.3986 3.308 18.5826 3.344 18.7826 3.408C18.9106 3.456 19.0426 3.524 19.1786 3.612C19.3146 3.692 19.4346 3.788 19.5386 3.9C19.6426 4.012 19.7106 4.136 19.7426 4.272C19.7826 4.4 19.7666 4.536 19.6946 4.68C19.5826 4.88 19.4586 4.98 19.3226 4.98C19.1866 4.972 19.0386 4.948 18.8786 4.908C18.7906 4.892 18.6866 4.856 18.5666 4.8C18.4466 4.744 18.3426 4.708 18.2546 4.692C17.9826 4.652 17.7426 4.672 17.5346 4.752C17.3266 4.832 17.1466 4.928 16.9946 5.04C16.8186 5.176 16.6666 5.332 16.5386 5.508V7.236C16.5386 7.452 16.5346 7.676 16.5266 7.908C16.5266 8.14 16.4946 8.352 16.4306 8.544C16.3746 8.728 16.2746 8.88 16.1306 9C15.9946 9.112 15.7946 9.16 15.5306 9.144C15.3866 9.136 15.2586 9.068 15.1466 8.94C15.0346 8.804 14.9666 8.672 14.9426 8.544C14.9266 8.424 14.9146 8.28 14.9066 8.112C14.8986 7.944 14.8906 7.768 14.8826 7.584C14.8826 7.4 14.8826 7.216 14.8826 7.032C14.8826 6.84 14.8826 6.664 14.8826 6.504V4.752ZM21.4192 3.948C21.6592 3.828 21.9112 3.744 22.1752 3.696C22.4392 3.64 22.6992 3.628 22.9552 3.66C23.2192 3.684 23.4712 3.752 23.7112 3.864C23.9512 3.968 24.1752 4.12 24.3832 4.32C24.5912 4.528 24.7512 4.756 24.8632 5.004C24.9752 5.252 25.0552 5.528 25.1032 5.832C25.1352 6.04 25.1872 6.232 25.2592 6.408C25.3312 6.584 25.4072 6.76 25.4872 6.936C25.5752 7.112 25.6552 7.288 25.7272 7.464C25.8072 7.64 25.8712 7.824 25.9192 8.016C25.9592 8.2 25.9432 8.38 25.8712 8.556C25.8072 8.724 25.6712 8.828 25.4632 8.868C25.3432 8.892 25.2272 8.884 25.1152 8.844C25.0112 8.796 24.9152 8.732 24.8272 8.652C24.7392 8.564 24.6592 8.472 24.5872 8.376C24.5232 8.272 24.4632 8.176 24.4072 8.088C24.2232 8.328 24.0232 8.516 23.8072 8.652C23.5912 8.78 23.3312 8.864 23.0272 8.904C22.7712 8.936 22.5272 8.944 22.2952 8.928C22.0632 8.912 21.8152 8.868 21.5512 8.796C21.2072 8.708 20.9232 8.556 20.6992 8.34C20.4832 8.116 20.3152 7.86 20.1952 7.572C20.0832 7.276 20.0232 6.96 20.0152 6.624C20.0072 6.288 20.0472 5.956 20.1352 5.628C20.2472 5.196 20.4152 4.844 20.6392 4.572C20.8632 4.3 21.1232 4.092 21.4192 3.948ZM21.7192 5.352C21.6072 5.464 21.5192 5.596 21.4552 5.748C21.3912 5.9 21.3512 6.06 21.3352 6.228C21.3272 6.396 21.3432 6.564 21.3832 6.732C21.4232 6.9 21.4872 7.048 21.5752 7.176C21.6552 7.288 21.7912 7.384 21.9832 7.464C22.1752 7.536 22.3752 7.58 22.5832 7.596C22.8232 7.612 23.0312 7.548 23.2072 7.404C23.3912 7.26 23.5272 7.08 23.6152 6.864C23.7112 6.64 23.7552 6.404 23.7472 6.156C23.7392 5.9 23.6712 5.668 23.5432 5.46C23.4472 5.308 23.3192 5.196 23.1592 5.124C23.0072 5.052 22.8432 5.016 22.6672 5.016C22.4912 5.008 22.3152 5.036 22.1392 5.1C21.9712 5.156 21.8312 5.24 21.7192 5.352ZM32.9032 6.24C33.0792 6.424 33.2072 6.56 33.2872 6.648C33.3752 6.728 33.4352 6.788 33.4672 6.828C33.5072 6.868 33.5352 6.892 33.5512 6.9C33.5672 6.908 33.5952 6.932 33.6352 6.972C33.6752 7.012 33.7392 7.076 33.8272 7.164C33.9152 7.244 34.0472 7.376 34.2232 7.56C34.3672 7.704 34.4832 7.872 34.5712 8.064C34.6672 8.248 34.6592 8.448 34.5472 8.664C34.4832 8.776 34.4112 8.856 34.3312 8.904C34.2512 8.944 34.1632 8.96 34.0672 8.952C33.9792 8.944 33.8832 8.916 33.7792 8.868C33.6832 8.82 33.5872 8.76 33.4912 8.688C33.3072 8.552 33.1312 8.396 32.9632 8.22C32.7952 8.036 32.6592 7.896 32.5552 7.8C32.4832 7.728 32.4392 7.68 32.4232 7.656C32.4072 7.64 32.3912 7.628 32.3752 7.62C32.3592 7.604 32.3432 7.588 32.3272 7.572C32.2712 7.516 32.2112 7.46 32.1472 7.404C32.0832 7.348 32.0192 7.288 31.9552 7.224V7.692C31.9552 7.78 31.9592 7.844 31.9672 7.884C31.9672 7.964 31.9632 8.024 31.9552 8.064C31.9312 8.152 31.9192 8.236 31.9192 8.316C31.9112 8.356 31.9032 8.396 31.8952 8.436C31.8872 8.468 31.8752 8.504 31.8592 8.544C31.8512 8.56 31.8432 8.572 31.8352 8.58C31.8352 8.588 31.8352 8.6 31.8352 8.616C31.8272 8.632 31.8192 8.644 31.8112 8.652C31.8112 8.66 31.8072 8.672 31.7992 8.688C31.7592 8.768 31.6952 8.844 31.6072 8.916C31.4552 9.004 31.2672 9.028 31.0432 8.988C30.9232 8.964 30.8312 8.92 30.7672 8.856C30.6952 8.808 30.6472 8.74 30.6232 8.652C30.6072 8.612 30.5912 8.572 30.5752 8.532C30.5672 8.484 30.5552 8.44 30.5392 8.4C30.5232 8.36 30.5152 8.324 30.5152 8.292C30.5152 8.252 30.5152 8.22 30.5152 8.196V1.368C30.5152 1.32 30.5152 1.272 30.5152 1.224C30.5152 1.176 30.5192 1.128 30.5272 1.08C30.5352 1.032 30.5432 0.988 30.5512 0.948C30.5672 0.9 30.5832 0.855999 30.5992 0.816C30.6312 0.736 30.6712 0.672 30.7192 0.624C30.7592 0.584 30.7992 0.556 30.8392 0.539999C30.8872 0.516 30.9312 0.496 30.9712 0.48C31.0112 0.472 31.0552 0.468 31.1032 0.468C31.1592 0.46 31.2112 0.456 31.2592 0.456C31.3712 0.456 31.4832 0.488 31.5952 0.551999C31.6992 0.623999 31.7752 0.715999 31.8232 0.827999C31.8872 0.979999 31.9192 1.128 31.9192 1.272C31.9272 1.352 31.9352 1.476 31.9432 1.644C31.9512 1.804 31.9552 1.924 31.9552 2.004V2.052C31.9632 2.316 31.9672 2.568 31.9672 2.808C31.9672 3.048 31.9672 3.308 31.9672 3.588C31.9592 3.868 31.9552 4.136 31.9552 4.392C31.9552 4.64 31.9552 4.888 31.9552 5.136V5.268C32.0192 5.204 32.0832 5.144 32.1472 5.088C32.2112 5.032 32.2712 4.972 32.3272 4.908C32.3592 4.884 32.3912 4.856 32.4232 4.824L32.5552 4.692C32.6592 4.588 32.7952 4.448 32.9632 4.272C33.1312 4.088 33.3072 3.928 33.4912 3.792C33.6912 3.648 33.8832 3.56 34.0672 3.528C34.2592 3.496 34.4192 3.592 34.5472 3.816C34.6592 4.032 34.6672 4.236 34.5712 4.428C34.4832 4.612 34.3672 4.784 34.2232 4.944C34.0472 5.128 33.9152 5.264 33.8272 5.352C33.7392 5.432 33.6752 5.492 33.6352 5.532C33.5952 5.564 33.5672 5.584 33.5512 5.592C33.5352 5.6 33.5072 5.624 33.4672 5.664C33.4352 5.696 33.3752 5.756 33.2872 5.844C33.2072 5.924 33.0792 6.056 32.9032 6.24ZM40.2811 6.636C40.2891 6.796 40.2931 6.964 40.2931 7.14C40.2931 7.308 40.2891 7.464 40.2811 7.608C40.2731 7.824 40.2611 8.024 40.2451 8.208C40.2291 8.384 40.1971 8.536 40.1491 8.664C40.1011 8.784 40.0251 8.876 39.9211 8.94C39.8251 8.996 39.6891 9.012 39.5131 8.988C39.3291 8.964 39.1971 8.876 39.1171 8.724C39.0371 8.572 38.9811 8.4 38.9491 8.208C38.9251 8.008 38.9171 7.808 38.9251 7.608C38.9331 7.408 38.9331 7.252 38.9251 7.14C38.9171 6.964 38.9091 6.764 38.9011 6.54C38.9011 6.308 38.8771 6.092 38.8291 5.892C38.7891 5.684 38.7171 5.508 38.6131 5.364C38.5091 5.22 38.3531 5.144 38.1451 5.136C37.8811 5.12 37.6771 5.14 37.5331 5.196C37.3971 5.252 37.2971 5.336 37.2331 5.448C37.1691 5.552 37.1291 5.68 37.1131 5.832C37.1051 5.984 37.0891 6.148 37.0651 6.324L37.0531 6.792V7.668C37.0531 7.812 37.0491 7.964 37.0411 8.124C37.0411 8.276 37.0171 8.416 36.9691 8.544C36.9211 8.672 36.8451 8.78 36.7411 8.868C36.6451 8.956 36.5011 9 36.3091 9C36.0691 9 35.8891 8.924 35.7691 8.772C35.6571 8.612 35.6011 8.416 35.6011 8.184V1.284C35.6011 1.236 35.6011 1.192 35.6011 1.152C35.6091 1.104 35.6171 1.056 35.6251 1.008C35.6411 0.96 35.6531 0.915999 35.6611 0.875999C35.6691 0.828 35.6811 0.784 35.6971 0.744C35.7211 0.664 35.7611 0.604 35.8171 0.564C35.8571 0.524 35.8971 0.492 35.9371 0.468C35.9771 0.444 36.0211 0.427999 36.0691 0.42C36.1091 0.412 36.1531 0.408 36.2011 0.408C36.2491 0.4 36.2971 0.396 36.3451 0.396C36.4651 0.396 36.5811 0.432 36.6931 0.504C36.7411 0.536 36.7851 0.571999 36.8251 0.611999C36.8651 0.643999 36.8971 0.691999 36.9211 0.756C36.9851 0.908 37.0171 1.052 37.0171 1.188C37.0251 1.228 37.0291 1.288 37.0291 1.368C37.0371 1.44 37.0411 1.516 37.0411 1.596C37.0411 1.676 37.0411 1.756 37.0411 1.836C37.0491 1.908 37.0531 1.964 37.0531 2.004V2.064C37.0611 2.32 37.0651 2.58 37.0651 2.844C37.0651 3.108 37.0651 3.376 37.0651 3.648V3.852C37.4011 3.74 37.7531 3.688 38.1211 3.696C38.4891 3.696 38.8171 3.768 39.1051 3.912C39.4011 4.064 39.6251 4.236 39.7771 4.428C39.9371 4.62 40.0531 4.832 40.1251 5.064C40.1971 5.296 40.2371 5.544 40.2451 5.808C40.2611 6.072 40.2731 6.348 40.2811 6.636ZM42.6535 3.948C42.8935 3.828 43.1455 3.744 43.4095 3.696C43.6735 3.64 43.9335 3.628 44.1895 3.66C44.4535 3.684 44.7055 3.752 44.9455 3.864C45.1855 3.968 45.4095 4.12 45.6175 4.32C45.8255 4.528 45.9855 4.756 46.0975 5.004C46.2095 5.252 46.2895 5.528 46.3375 5.832C46.3695 6.04 46.4215 6.232 46.4935 6.408C46.5655 6.584 46.6415 6.76 46.7215 6.936C46.8095 7.112 46.8895 7.288 46.9615 7.464C47.0415 7.64 47.1055 7.824 47.1535 8.016C47.1935 8.2 47.1775 8.38 47.1055 8.556C47.0415 8.724 46.9055 8.828 46.6975 8.868C46.5775 8.892 46.4615 8.884 46.3495 8.844C46.2455 8.796 46.1495 8.732 46.0615 8.652C45.9735 8.564 45.8935 8.472 45.8215 8.376C45.7575 8.272 45.6975 8.176 45.6415 8.088C45.4575 8.328 45.2575 8.516 45.0415 8.652C44.8255 8.78 44.5655 8.864 44.2615 8.904C44.0055 8.936 43.7615 8.944 43.5295 8.928C43.2975 8.912 43.0495 8.868 42.7855 8.796C42.4415 8.708 42.1575 8.556 41.9335 8.34C41.7175 8.116 41.5495 7.86 41.4295 7.572C41.3175 7.276 41.2575 6.96 41.2495 6.624C41.2415 6.288 41.2815 5.956 41.3695 5.628C41.4815 5.196 41.6495 4.844 41.8735 4.572C42.0975 4.3 42.3575 4.092 42.6535 3.948ZM42.9535 5.352C42.8415 5.464 42.7535 5.596 42.6895 5.748C42.6255 5.9 42.5855 6.06 42.5695 6.228C42.5615 6.396 42.5775 6.564 42.6175 6.732C42.6575 6.9 42.7215 7.048 42.8095 7.176C42.8895 7.288 43.0255 7.384 43.2175 7.464C43.4095 7.536 43.6095 7.58 43.8175 7.596C44.0575 7.612 44.2655 7.548 44.4415 7.404C44.6255 7.26 44.7615 7.08 44.8495 6.864C44.9455 6.64 44.9895 6.404 44.9815 6.156C44.9735 5.9 44.9055 5.668 44.7775 5.46C44.6815 5.308 44.5535 5.196 44.3935 5.124C44.2415 5.052 44.0775 5.016 43.9015 5.016C43.7255 5.008 43.5495 5.036 43.3735 5.1C43.2055 5.156 43.0655 5.24 42.9535 5.352ZM49.6999 3.576C49.9639 3.448 50.2399 3.356 50.5279 3.3C50.8159 3.244 51.0999 3.232 51.3799 3.264C51.6679 3.296 51.9439 3.372 52.2079 3.492C52.4799 3.612 52.7279 3.78 52.9519 3.996C53.1359 4.18 53.2959 4.404 53.4319 4.668C53.5679 4.924 53.6679 5.176 53.7319 5.424C53.8679 5.864 53.8879 6.308 53.7919 6.756C53.6959 7.204 53.5319 7.62 53.2999 8.004C53.1879 8.18 53.0479 8.34 52.8799 8.484C52.7199 8.62 52.5479 8.732 52.3639 8.82C52.1239 8.932 51.8639 9.008 51.5839 9.048C51.3039 9.096 51.0319 9.108 50.7679 9.084C50.2879 9.06 49.8639 8.94 49.4959 8.724C49.1359 8.508 48.8439 8.232 48.6199 7.896C48.4039 7.56 48.2599 7.18 48.1879 6.756C48.1239 6.324 48.1519 5.884 48.2719 5.436C48.3999 4.956 48.5839 4.568 48.8239 4.272C49.0719 3.968 49.3639 3.736 49.6999 3.576ZM50.0599 5.184C49.9399 5.296 49.8479 5.436 49.7839 5.604C49.7199 5.772 49.6799 5.948 49.6639 6.132C49.6479 6.308 49.6599 6.488 49.6999 6.672C49.7479 6.848 49.8199 7.008 49.9159 7.152C49.9959 7.272 50.1399 7.372 50.3479 7.452C50.5559 7.532 50.7719 7.58 50.9959 7.596C51.2519 7.612 51.4759 7.544 51.6679 7.392C51.8599 7.232 52.0039 7.036 52.0999 6.804C52.2039 6.572 52.2519 6.32 52.2439 6.048C52.2359 5.776 52.1639 5.528 52.0279 5.304C51.9319 5.144 51.7959 5.028 51.6199 4.956C51.4519 4.876 51.2719 4.836 51.0799 4.836C50.8959 4.828 50.7119 4.856 50.5279 4.92C50.3439 4.976 50.1879 5.064 50.0599 5.184Z" fill="white"/>
</svg>
